<svg viewBox="0 0 128 128" fill="none" xmlns="http://www.w3.org/2000/svg" id="main-secure-small" aria-hidden="true" role="none" data-supported-dps="128x128" width="128" height="128">
  <path fill="#D6CEC2" d="M117 66h3v62h-3z"/>
  <path fill="#D6CEC2" d="M0 66h128v7H0z"/>
  <path d="M64 2a64 64 0 0164 64H0A64 64 0 0164 2z" fill="#FDF6EC"/>
  <path d="M64 2a64 64 0 0164 64H0A64 64 0 0164 2z" fill="#FDF6EC"/>
  <path fill="#38434F" d="M73 57h8v7h-8z"/>
  <path fill="#38434F" d="M67 63h20v1H67z"/>
  <rect x="52" y="26" width="48" height="31" rx="1" fill="#56687A"/>
  <path d="M99 27H53v29h46V27z" fill="#C1EDF4"/>
  <path d="M96 30H56v23h40V30z" fill="#E7EEF5"/>
  <path d="M87 34H65v16h22V34z" fill="#fff"/>
  <path d="M83 45H69v1h14v-1zM83 47H69v1h14v-1zM83 43H69v1h14v-1z" fill="#56687A"/>
  <path d="M96 30H58v2h38v-2z" fill="#A8D4FF"/>
  <path d="M58 30h-2v2h2v-2z" fill="#378FE9"/>
  <path d="M76 35l-3 1.058v1.909c0 1.532.96 2.719 2.63 3.263l.37.128.37-.118c1.67-.554 2.63-1.73 2.63-3.273v-1.909L76 35zm-.36 4.657L74.5 38.53l.6-.603.47.465 1.04-1.276h1.1l-2.07 2.541z" fill="#057642"/>
  <path fill="#6E6558" d="M0 64h128v2H0z"/>
  <path d="M82 88h19v40H82V88z" fill="#BCD6DA"/>
  <path d="M101 88h10a6 6 0 016 6v34h-16V88z" fill="#98B8BD"/>
  <path d="M97.996 90H85v14.951c0 1.131.894 2.049 1.994 2.049h9.012c1.1 0 1.994-.918 1.994-2.049V90h-.004z" fill="#719196"/>
  <path d="M85 90h13v4H85v-4z" fill="#526A6E"/>
  <path d="M82 113h19v2.813c-9.546 2.671-19 0-19 0V113z" fill="#719196"/>
  <path d="M96.5 122a1.5 1.5 0 110-3 1.5 1.5 0 010 3z" fill="#F5FBFC"/>
  <path fill="#526A6E" d="M89 119h1v1h-1zM87 119h1v1h-1zM85 119h1v1h-1z"/>
  <path d="M85 97.5h13M85 100.5h13M85 103.5h13" stroke="#BCD6DA" stroke-miterlimit="10"/>
  <path d="M23.88 111.783l1.876-2.985 5.267 2.985c-1.098 2.282-1.583 3.778-1.583 3.778l-2.617.944-3.29-2.192.313-2.38" fill="#F4FBFE"/>
  <path d="M33.162 124.972l-12.58-8.55 3.298-4.643c3.086 2.019 1.665 4.068 5.564 3.779-.97 6.211 4.906 4.854 3.722 9.41l-.004.004z" fill="#0D2135"/>
  <path d="M48.404 88.695c.647 2.853.24 5.978-1.47 8.752l-12.997 21.066-9.775-7.268 12.004-18.434" fill="#57697B"/>
  <path d="M35.286 112.546l1.877-2.985 5.267 2.985c-1.098 2.282-1.583 3.779-1.583 3.779l-2.617.943-3.29-2.192.313-2.379" fill="#F4FBFE"/>
  <path d="M44.57 125.735l-12.58-8.549 3.296-4.644c3.087 2.019 1.666 4.069 5.565 3.779-.97 6.211 4.906 4.854 3.722 9.41l-.004.004z" fill="#0D2135"/>
  <path d="M59.138 67.336l-1.64-5.316 9.633-1.704c.173-.03.353-.033.53-.01l1.764.232c.237.03.447.162.579.357l1.965 2.871c.684 1-2.774 1.273-3.375 1.303l-1.718.09c-.626.034-1.286-.34-2.019-.34l-5.719 2.517z" fill="#955646"/>
  <path d="M39.61 77.92l11.392 2.657c7.828 1.828 11.561 10.79 7.34 17.633l-12.998 21.066-9.776-7.268 12.005-18.433-22.78-4.113c-5.891 0-7.643-9.659-7.643-9.659l22.464-1.88-.004-.004z" fill="#74899F"/>
  <path d="M34.809 38.45a7.876 7.876 0 110-15.753 7.876 7.876 0 010 15.753z" fill="#955646"/>
  <path d="M30.282 38.044c.493.94.745 1.88.557 3.154-.09.625-.286 1.328-.613 2.155-.17.425-.372.88-.613 1.372l9.843.06s-.064-.308-.128-.785c-.075-.576-.15-1.395-.098-2.208.068-1.146.388-2.274 1.29-2.658 2.511-1.068 2.658-1.582 2.425-4.117-.192-1.417.94-1.312.883-2.139-.048-.744-.887-1.534-1.188-3.15a4.347 4.347 0 01-.075-.523.218.218 0 01-.007-.049h-.004l-4.252 1.869-.072.03-.541.24-2.786 1.222-.045.02-6.335 2.781s0 .008.007.012c.685 1.052 1.312 1.883 1.752 2.714z" fill="#955646"/>
  <path d="M38.234 31.224c-.041-.887.429-1.876 1.094-2.455.519-.451 1.162-.733 1.82-.925.432-.128.887-.222 1.26-.478.849-.578 1-1.782.857-2.8-.12-.835-.388-1.655-.395-2.5-.008-.847.195-1.677-.075-2.535-.335-1.056-1.196-1.853-2.02-2.594-.654-.586-1.304-1.173-1.958-1.76-.466-.417-.951-.85-1.55-1.04-1.593-.512-3.184.819-4.853.928-1.132.071-2.32-.417-3.369.007-1.207.49-1.71 1.985-2.846 2.628-.53.301-1.154.388-1.707.64a3.193 3.193 0 00-1.786 2.233c-.135.661-.056 1.36-.266 2.004-.361 1.094-1.508 1.838-1.704 2.974-.225 1.3.888 2.485.914 3.804.015.782-.35 1.583-.094 2.32.244.7.978 1.113 1.331 1.767.395.733.274 1.692.782 2.354.767 1 2.365.669 3.485 1.244.835.429 1.493 1.391 2.422 1.294.85-.087 1.353-1.03 2.158-1.316.424-.15.894-.106 1.346-.143.657-.057 1.308-.308 1.774-.77.466-.463.733-1.144.628-1.794-.147-.888-.79-1.542-.666-2.478.023-.165 3.076-.556 3.418-.601v-.008z" fill="#0D2135"/>
  <path d="M36.678 33.81a1.869 1.869 0 110-3.736 1.869 1.869 0 010 3.737z" fill="#955646"/>
  <path d="M57.499 62l2.004 6.148-5.374 2.598A7.655 7.655 0 0147 70.5V76a8 8 0 01-8 8H16V52.9c0-5.863 5.019-10.467 10.859-9.964l12.353 1.065a10 10 0 018.221 5.774l5.93 12.854L57.5 62z" fill="#92B182"/>
  <path d="M28.808 42.232a1.1 1.1 0 001.023 1.095l.395.026 9.102.646c-.075-.575-.15-1.394-.098-2.207l-8.391-.594-.854-.06a1.099 1.099 0 00-1.173 1.02c0 .025-.004.048-.004.074zM30.5 128a2.5 2.5 0 110-5 2.5 2.5 0 010 5zM21.5 128a2.5 2.5 0 110-5 2.5 2.5 0 010 5zM39.5 128a2.5 2.5 0 110-5 2.5 2.5 0 010 5z" fill="#0D2135"/>
  <path d="M30.5 126v-25M21.5 125.5v-1a3 3 0 013-3h12a3 3 0 013 3v1" stroke="#0D2135" stroke-miterlimit="10"/>
  <rect x="9" y="51" width="35" height="33" rx="8" fill="#0D2135"/>
  <rect x="12" y="89" width="37" height="12" rx="6" fill="#0D2135"/>
  <path d="M26.492 89V68" stroke="#0D2135" stroke-miterlimit="10"/>
  <path d="M105 64h18v-3h-18v3z" fill="#F8C77E"/>
  <path d="M106 61h20v-3h-20v3z" fill="#719196"/>
  <path d="M108 58h16v-3h-16v3z" fill="#004182"/>
  <path fill="#BBB1A1" d="M120 66h8v62h-8z"/>
  <path d="M121.749 40.537c-1.494-2.084-4.815-1.45-6.449.067V37.91c0-1.034 2.248.38 2.248-.461s-1.376-2.27-2.816-.61c0-1.34-3.702-.946-3.539.275.163 1.213 3.539-.447 3.539.804v1.615c-5.592-1.228-7.669 1.16-6.347 2.515.848.692 2.015.335 3.111-.2a1.313 1.313 0 00-.396.535 1.248 1.248 0 00-.07.655c.194 2.091 3.702-.811 3.702-.811v2.694c-1.431-1.184-3.936-1.556-3.936-.164 0 1.727 3.936-.498 3.936 1.243h4.504c-.334-1.332-2.652-2.21-3.936-1.08 0 0-.163-2.998.56-2.619.724.38 5.477 3.572 5.671 1.89.109-.945-.677-2.046-1.976-2.694 1.688.194 3.019.194 2.194-.952v-.008zm-7.009 1.147c-.28-.306-1.688-.492-2.668-.15.895-.49 1.719-.952 2.108-.922.56 0 .56 1.079.56 1.079v-.008z" fill="#576C4C"/>
  <path d="M122 46c0 4.193-2.286 9-2.286 9h-8.412S109 50.193 109 46h13z" fill="#92B182"/>
</svg>
